HIERARCHY
ROOT Hips
{
	OFFSET -0.001795 -0.223333 0.028219
	CHANNELS 6 Xposition Yposition Zposition Zrotation Yrotation Xrotation 
	JOINT LeftUpLeg
	{
		OFFSET 0.069520 -0.091406 -0.006815
		CHANNELS 3 Zrotation Yrotation Xrotation
		JOINT LeftLeg
		{
			OFFSET 0.034277 -0.375199 -0.004496
			CHANNELS 3 Zrotation Yrotation Xrotation
			JOINT LeftFoot
			{
				OFFSET -0.013596 -0.397961 -0.043693
				CHANNELS 3 Zrotation Yrotation Xrotation
				JOINT LeftToe
				{
					OFFSET 0.026358 -0.055791 0.119288
					CHANNELS 3 Zrotation Yrotation Xrotation
					End Site
					{
						OFFSET 0.000000 0.000000 0.000000
					}
				}
			}
		}
	}
	JOINT RightUpLeg
	{
		OFFSET -0.067670 -0.090522 -0.004320
		CHANNELS 3 Zrotation Yrotation Xrotation
		JOINT RightLeg
		{
			OFFSET -0.038290 -0.382569 -0.008850
			CHANNELS 3 Zrotation Yrotation Xrotation
			JOINT RightFoot
			{
				OFFSET 0.015774 -0.398415 -0.042312
				CHANNELS 3 Zrotation Yrotation Xrotation
				JOINT RightToe
				{
					OFFSET -0.025372 -0.048144 0.123348
					CHANNELS 3 Zrotation Yrotation Xrotation
					End Site
					{
						OFFSET 0.000000 0.000000 0.000000
					}
				}
			}
		}
	}
	JOINT Spine
	{
		OFFSET -0.002533 0.108963 -0.026696
		CHANNELS 3 Zrotation Yrotation Xrotation
		JOINT Spine1
		{
			OFFSET 0.005487 0.135180 0.001092
			CHANNELS 3 Zrotation Yrotation Xrotation
			JOINT Spine2
			{
				OFFSET 0.001457 0.052922 0.025425
				CHANNELS 3 Zrotation Yrotation Xrotation
				JOINT Neck
				{
					OFFSET -0.002778 0.213870 -0.042857
					CHANNELS 3 Zrotation Yrotation Xrotation
					JOINT Head
					{
						OFFSET 0.005152 0.064970 0.051349
						CHANNELS 3 Zrotation Yrotation Xrotation
						End Site
						{
							OFFSET 0.000000 0.000000 0.000000
						}
					}
				}
				JOINT LeftShoulder
				{
					OFFSET 0.078845 0.121749 -0.034090
					CHANNELS 3 Zrotation Yrotation Xrotation
					JOINT LeftArm
					{
						OFFSET 0.090977 0.030469 -0.008868
						CHANNELS 3 Zrotation Yrotation Xrotation
						JOINT LeftForeArm
						{
							OFFSET 0.259612 -0.012772 -0.027456
							CHANNELS 3 Zrotation Yrotation Xrotation
							JOINT LeftHand
							{
								OFFSET 0.249234 0.008986 -0.001171
								CHANNELS 3 Zrotation Yrotation Xrotation
								End Site
								{
									OFFSET 0.000000 0.000000 0.000000
								}
							}
						}
					}
				}
				JOINT RightShoulder
				{
					OFFSET -0.081759 0.118833 -0.038615
					CHANNELS 3 Zrotation Yrotation Xrotation
					JOINT RightArm
					{
						OFFSET -0.096012 0.032551 -0.009143
						CHANNELS 3 Zrotation Yrotation Xrotation
						JOINT RightForeArm
						{
							OFFSET -0.253742 -0.013329 -0.021401
							CHANNELS 3 Zrotation Yrotation Xrotation
							JOINT RightHand
							{
								OFFSET -0.255298 0.007772 -0.005559
								CHANNELS 3 Zrotation Yrotation Xrotation
								End Site
								{
									OFFSET 0.000000 0.000000 0.000000
								}
							}
						}
					}
				}
			}
		}
	}
}
MOTION
Frames: 10
Frame Time: 0.050000
0.000000 0.927221 0.000000 -2.080635 -2.633871 -1.640949 3.641783 -0.346777 -5.722780 -6.969623 1.206981 12.211045 8.020023 16.771808 2.950973 0.000000 0.000000 0.000000 -5.175715 0.356933 -4.180368 5.154104 -0.540819 9.246152 -6.090445 -16.138552 8.280518 0.000000 0.000000 0.000000 3.303219 -1.261944 18.786445 -6.429363 2.101716 -25.253980 -1.810656 7.177273 24.458601 10.942568 -2.975024 -30.807977 0.000000 0.000000 0.000000 -21.897416 -10.725232 3.047028 -42.203929 -10.954872 -2.755017 -7.268806 -26.282396 2.602049 0.000000 0.000000 0.000000 28.298355 -0.703688 -0.170777 49.851491 15.428808 -1.381637 8.728704 34.104177 4.669953 0.000000 0.000000 0.000000 
0.003600 0.927892 0.002509 -1.879010 -2.125379 -1.764316 3.511042 -0.307887 -4.905562 -7.508175 1.267584 11.163842 7.696054 16.161007 2.924370 0.000000 0.000000 0.000000 -5.683639 0.295418 -3.235753 5.249198 -0.568521 8.189345 -6.188187 -16.343104 8.696431 0.000000 0.000000 0.000000 3.520253 -1.392433 19.995465 -7.252504 2.298501 -25.384216 -2.242387 6.799991 22.763571 10.586886 -2.604526 -31.563761 0.000000 0.000000 0.000000 -21.331607 -9.952008 2.569856 -42.742789 -10.656386 -2.754129 -6.778502 -24.481022 2.300073 0.000000 0.000000 0.000000 28.879119 -0.719518 -0.258305 51.116210 14.232428 -1.697818 7.214310 35.078022 4.384663 0.000000 0.000000 0.000000 
0.007567 0.927523 0.005263 -1.625341 -1.347119 -2.057376 3.325104 -0.316245 -4.876779 -8.059628 1.384181 11.835799 7.355992 15.493279 2.717515 0.000000 0.000000 0.000000 -6.532894 0.300484 -3.810178 5.832612 -0.708114 10.285047 -6.527103 -16.974681 8.966185 0.000000 0.000000 0.000000 3.059587 -1.386349 20.797711 -6.970814 2.231495 -25.777396 -2.021265 6.250857 23.221496 9.759944 -2.398282 -30.502511 0.000000 0.000000 0.000000 -22.198128 -10.226104 2.738563 -41.671325 -10.595488 -2.754556 -5.917911 -22.994214 1.984451 0.000000 0.000000 0.000000 30.148335 -0.988800 -0.494835 49.429621 14.239752 -1.842472 7.237951 35.886805 4.494843 0.000000 0.000000 0.000000 
0.011582 0.927345 0.008702 -1.483847 -1.249241 -2.966196 2.576555 -0.272376 -3.887602 -7.503798 1.274177 12.268647 7.357249 15.466121 2.450604 0.000000 0.000000 0.000000 -7.466299 0.290208 -4.363188 6.667402 -0.925273 13.404834 -6.498878 -16.952593 9.430520 0.000000 0.000000 0.000000 3.186676 -1.510185 22.406654 -7.695721 2.418968 -25.671218 -2.566869 5.715603 22.477925 10.938331 -3.072458 -30.598377 0.000000 0.000000 0.000000 -21.714842 -10.344082 2.915194 -40.888558 -10.324719 -2.775862 -6.050817 -23.163702 2.024052 0.000000 0.000000 0.000000 30.821386 -1.683391 -1.194716 49.648699 14.102370 -1.802017 7.660297 36.594806 4.718970 0.000000 0.000000 0.000000 
0.015286 0.926411 0.012507 -1.601143 -1.570054 -3.564614 2.268620 -0.218998 -3.063133 -7.235020 1.235486 12.513421 7.560758 15.808437 1.930495 0.000000 0.000000 0.000000 -7.851033 0.331709 -6.031004 7.094507 -1.094657 18.195023 -6.218122 -16.421515 9.257395 0.000000 0.000000 0.000000 2.459004 -1.397068 23.237134 -7.057577 2.298792 -25.057595 -2.776414 5.708760 22.399852 11.099385 -3.273743 -30.179709 0.000000 0.000000 0.000000 -22.287253 -10.196425 2.864713 -39.754657 -10.690896 -2.609341 -5.073661 -23.307712 1.840152 0.000000 0.000000 0.000000 31.493860 -1.445705 -1.129273 49.290678 13.894000 -1.905002 6.857623 38.123237 4.682602 0.000000 0.000000 0.000000 
0.017886 0.926042 0.016490 -1.777206 -1.478210 -4.421502 2.291753 -0.136289 -1.976447 -7.220286 1.235995 12.755303 7.518593 15.687053 1.553220 0.000000 0.000000 0.000000 -8.326886 0.347308 -7.836740 7.853921 -1.443371 23.920394 -5.801415 -15.671654 9.755739 0.000000 0.000000 0.000000 1.614297 -1.278718 24.193971 -6.829366 2.266782 -24.731843 -2.429301 5.116620 22.866392 10.819637 -3.088397 -31.035125 0.000000 0.000000 0.000000 -22.660142 -10.725841 3.339400 -38.460059 -11.269435 -2.444485 -4.874698 -22.768477 1.765259 0.000000 0.000000 0.000000 31.045318 -1.402260 -1.297581 49.080620 13.700394 -1.941285 7.790106 39.027620 5.082340 0.000000 0.000000 0.000000 
0.019007 0.927549 0.020837 -2.386721 -1.436176 -4.769728 2.767259 -0.037346 -0.668385 -6.965062 1.139756 11.678489 7.399300 15.453412 1.525051 0.000000 0.000000 0.000000 -8.231507 0.441657 -11.013769 9.085721 -2.100788 30.857244 -5.855103 -15.979779 11.907767 0.000000 0.000000 0.000000 1.256242 -1.249415 24.899684 -6.023524 2.054752 -25.280883 -3.154317 4.224847 23.623641 12.680876 -4.140010 -31.693081 0.000000 0.000000 0.000000 -22.588829 -9.746156 3.083674 -37.500110 -11.241843 -2.562362 -5.402893 -23.249913 1.936746 0.000000 0.000000 0.000000 31.399147 -1.415007 -1.622514 48.712045 13.541781 -2.008246 9.783311 39.312102 5.761676 0.000000 0.000000 0.000000 
0.019080 0.928551 0.026258 -3.046651 -2.451192 -4.716678 3.484356 0.062981 0.751324 -7.071431 1.139827 9.933642 7.691366 16.063648 1.575057 0.000000 0.000000 0.000000 -7.094143 0.702951 -14.318936 9.141671 -2.094536 33.857452 -7.523491 -19.187291 16.584159 0.000000 0.000000 0.000000 1.450702 -1.219304 24.401519 -4.988511 1.818507 -23.714959 -4.326584 4.743850 22.712791 12.293151 -4.322279 -29.212117 0.000000 0.000000 0.000000 -21.830993 -10.670396 3.547387 -36.953396 -10.146552 -2.732849 -5.739734 -24.356040 2.079877 0.000000 0.000000 0.000000 31.526121 -1.043589 -1.409795 48.490515 13.482873 -1.916732 10.191928 38.568757 5.713168 0.000000 0.000000 0.000000 
0.018237 0.929119 0.033060 -3.118888 -1.690468 -5.242081 3.718881 0.166001 2.539447 -7.085482 1.071609 8.499637 7.239503 15.148403 1.351371 0.000000 0.000000 0.000000 -6.548909 0.814203 -16.019749 8.882285 -2.106839 33.856117 -9.379891 -21.970070 19.155761 0.000000 0.000000 0.000000 1.471284 -1.276182 24.614888 -6.198574 2.159986 -23.372323 -3.569537 2.452370 23.042893 11.613879 -4.043256 -30.628028 0.000000 0.000000 0.000000 -23.221317 -11.000067 4.350129 -35.351870 -10.744710 -2.673201 -5.108078 -25.248405 2.075219 0.000000 0.000000 0.000000 30.381298 -0.938806 -2.027339 49.891753 13.100118 -1.840386 10.260686 37.083794 5.311770 0.000000 0.000000 0.000000 
0.016920 0.929797 0.041663 -3.978849 -1.637761 -5.876600 4.681955 0.238500 4.229265 -6.869713 1.006904 7.839454 7.135484 14.912731 1.085440 0.000000 0.000000 0.000000 -5.454428 1.022695 -17.362659 8.922064 -2.106663 32.542783 -9.625720 -22.377598 17.014366 0.000000 0.000000 0.000000 1.711369 -1.380895 25.382431 -5.219524 1.896518 -23.985823 -3.914164 3.320581 24.239263 12.818382 -4.636387 -30.422368 0.000000 0.000000 0.000000 -23.281801 -10.873756 4.013298 -34.578407 -11.845927 -2.343599 -6.639713 -26.321508 2.485925 0.000000 0.000000 0.000000 30.819721 -1.677933 -2.128632 49.461421 12.807219 -2.198916 10.162037 36.723775 5.336435 0.000000 0.000000 0.000000 
